<mxfile host="Electron" modified="2024-02-17T19:52:40.728Z" agent="Mozilla/5.0 (X11; Linux x86_64) AppleWebKit/537.36 (KHTML, like Gecko) draw.io/23.0.2 Chrome/120.0.6099.109 Electron/28.2.2 Safari/537.36" etag="CAEUiM4q5JADzY-Oy_Tg" version="23.0.2" type="device">
  <diagram name="Page-1" id="q6j4BHGRiOtVWXdEwqr8">
    <mxGraphModel dx="1105" dy="2306" grid="1" gridSize="10" guides="1" tooltips="1" connect="1" arrows="1" fold="1" page="1" pageScale="1" pageWidth="2336" pageHeight="1654" math="0" shadow="0">
      <root>
        <mxCell id="0" />
        <mxCell id="1" parent="0" />
        <mxCell id="n5yKzyt80aX8_UwtfpQi-13" value="" style="rounded=1;whiteSpace=wrap;html=1;fillColor=#dae8fc;strokeColor=#6c8ebf;opacity=80;" vertex="1" parent="1">
          <mxGeometry x="40" y="-1460" width="250" height="130" as="geometry" />
        </mxCell>
        <mxCell id="n5yKzyt80aX8_UwtfpQi-12" value="" style="rounded=1;whiteSpace=wrap;html=1;fillColor=#d5e8d4;strokeColor=#82b366;opacity=80;" vertex="1" parent="1">
          <mxGeometry x="40" y="-1610" width="250" height="130" as="geometry" />
        </mxCell>
        <mxCell id="n5yKzyt80aX8_UwtfpQi-3" value="Graphical&lt;br&gt;Surface" style="rounded=1;whiteSpace=wrap;html=1;strokeColor=default;fillColor=none;fontSize=14;" vertex="1" parent="1">
          <mxGeometry x="80" y="-1570" width="160" height="80" as="geometry" />
        </mxCell>
        <mxCell id="n5yKzyt80aX8_UwtfpQi-8" value="Logical&lt;br&gt;Surface" style="rounded=1;whiteSpace=wrap;html=1;strokeColor=default;fillColor=none;fontSize=14;" vertex="1" parent="1">
          <mxGeometry x="80" y="-1450" width="160" height="80" as="geometry" />
        </mxCell>
        <mxCell id="n5yKzyt80aX8_UwtfpQi-10" style="edgeStyle=orthogonalEdgeStyle;rounded=0;orthogonalLoop=1;jettySize=auto;html=1;exitX=0;exitY=0.25;exitDx=0;exitDy=0;entryX=1;entryY=0.5;entryDx=0;entryDy=0;" edge="1" parent="1" source="n5yKzyt80aX8_UwtfpQi-9" target="n5yKzyt80aX8_UwtfpQi-3">
          <mxGeometry relative="1" as="geometry" />
        </mxCell>
        <mxCell id="n5yKzyt80aX8_UwtfpQi-11" style="edgeStyle=orthogonalEdgeStyle;rounded=0;orthogonalLoop=1;jettySize=auto;html=1;exitX=0;exitY=0.75;exitDx=0;exitDy=0;entryX=1;entryY=0.5;entryDx=0;entryDy=0;" edge="1" parent="1" source="n5yKzyt80aX8_UwtfpQi-9" target="n5yKzyt80aX8_UwtfpQi-8">
          <mxGeometry relative="1" as="geometry" />
        </mxCell>
        <mxCell id="n5yKzyt80aX8_UwtfpQi-9" value="Surface" style="rounded=1;whiteSpace=wrap;html=1;strokeColor=default;fillColor=none;fontSize=14;" vertex="1" parent="1">
          <mxGeometry x="320" y="-1510" width="160" height="80" as="geometry" />
        </mxCell>
        <mxCell id="n5yKzyt80aX8_UwtfpQi-14" value="" style="shape=flexArrow;endArrow=classic;html=1;rounded=0;" edge="1" parent="1">
          <mxGeometry width="50" height="50" relative="1" as="geometry">
            <mxPoint x="500" y="-1470.42" as="sourcePoint" />
            <mxPoint x="620" y="-1470" as="targetPoint" />
          </mxGeometry>
        </mxCell>
        <mxCell id="n5yKzyt80aX8_UwtfpQi-15" value="Widget/Entiny" style="rounded=1;whiteSpace=wrap;html=1;strokeColor=default;fillColor=none;fontSize=14;" vertex="1" parent="1">
          <mxGeometry x="640" y="-1510" width="160" height="80" as="geometry" />
        </mxCell>
        <mxCell id="n5yKzyt80aX8_UwtfpQi-19" style="edgeStyle=orthogonalEdgeStyle;rounded=0;orthogonalLoop=1;jettySize=auto;html=1;exitX=0.5;exitY=0;exitDx=0;exitDy=0;entryX=0.25;entryY=1;entryDx=0;entryDy=0;" edge="1" parent="1" source="n5yKzyt80aX8_UwtfpQi-16" target="n5yKzyt80aX8_UwtfpQi-15">
          <mxGeometry relative="1" as="geometry" />
        </mxCell>
        <mxCell id="n5yKzyt80aX8_UwtfpQi-16" value="Graphical&lt;br&gt;Interface" style="rounded=1;whiteSpace=wrap;html=1;strokeColor=#82b366;fillColor=#d5e8d4;fontSize=14;" vertex="1" parent="1">
          <mxGeometry x="550" y="-1390" width="160" height="80" as="geometry" />
        </mxCell>
        <mxCell id="n5yKzyt80aX8_UwtfpQi-18" style="edgeStyle=orthogonalEdgeStyle;rounded=0;orthogonalLoop=1;jettySize=auto;html=1;exitX=0.5;exitY=0;exitDx=0;exitDy=0;entryX=0.75;entryY=1;entryDx=0;entryDy=0;" edge="1" parent="1" source="n5yKzyt80aX8_UwtfpQi-17" target="n5yKzyt80aX8_UwtfpQi-15">
          <mxGeometry relative="1" as="geometry" />
        </mxCell>
        <mxCell id="n5yKzyt80aX8_UwtfpQi-17" value="Logical&lt;br&gt;Interface" style="rounded=1;whiteSpace=wrap;html=1;strokeColor=#6c8ebf;fillColor=#dae8fc;fontSize=14;" vertex="1" parent="1">
          <mxGeometry x="730" y="-1390" width="160" height="80" as="geometry" />
        </mxCell>
        <mxCell id="n5yKzyt80aX8_UwtfpQi-36" value="Positional" style="swimlane;fontStyle=0;childLayout=stackLayout;horizontal=1;startSize=30;horizontalStack=0;resizeParent=1;resizeParentMax=0;resizeLast=0;collapsible=1;marginBottom=0;whiteSpace=wrap;html=1;" vertex="1" parent="1">
          <mxGeometry x="40" y="-1240" width="200" height="90" as="geometry" />
        </mxCell>
        <mxCell id="n5yKzyt80aX8_UwtfpQi-37" value="init(Position) private" style="text;strokeColor=none;fillColor=none;align=left;verticalAlign=middle;spacingLeft=4;spacingRight=4;overflow=hidden;points=[[0,0.5],[1,0.5]];portConstraint=eastwest;rotatable=0;whiteSpace=wrap;html=1;" vertex="1" parent="n5yKzyt80aX8_UwtfpQi-36">
          <mxGeometry y="30" width="200" height="30" as="geometry" />
        </mxCell>
        <mxCell id="n5yKzyt80aX8_UwtfpQi-38" value="move(Position) non-const public" style="text;strokeColor=none;fillColor=none;align=left;verticalAlign=middle;spacingLeft=4;spacingRight=4;overflow=hidden;points=[[0,0.5],[1,0.5]];portConstraint=eastwest;rotatable=0;whiteSpace=wrap;html=1;" vertex="1" parent="n5yKzyt80aX8_UwtfpQi-36">
          <mxGeometry y="60" width="200" height="30" as="geometry" />
        </mxCell>
        <mxCell id="n5yKzyt80aX8_UwtfpQi-40" value="Dimensional" style="swimlane;fontStyle=0;childLayout=stackLayout;horizontal=1;startSize=30;horizontalStack=0;resizeParent=1;resizeParentMax=0;resizeLast=0;collapsible=1;marginBottom=0;whiteSpace=wrap;html=1;" vertex="1" parent="1">
          <mxGeometry x="40" y="-1120" width="240" height="90" as="geometry" />
        </mxCell>
        <mxCell id="n5yKzyt80aX8_UwtfpQi-43" value="contains(Position) private" style="text;strokeColor=none;fillColor=none;align=left;verticalAlign=middle;spacingLeft=4;spacingRight=4;overflow=hidden;points=[[0,0.5],[1,0.5]];portConstraint=eastwest;rotatable=0;whiteSpace=wrap;html=1;" vertex="1" parent="n5yKzyt80aX8_UwtfpQi-40">
          <mxGeometry y="30" width="240" height="30" as="geometry" />
        </mxCell>
        <mxCell id="n5yKzyt80aX8_UwtfpQi-47" value="resize(Numeric, Numeric) non-const public" style="text;strokeColor=none;fillColor=none;align=left;verticalAlign=middle;spacingLeft=4;spacingRight=4;overflow=hidden;points=[[0,0.5],[1,0.5]];portConstraint=eastwest;rotatable=0;whiteSpace=wrap;html=1;" vertex="1" parent="n5yKzyt80aX8_UwtfpQi-40">
          <mxGeometry y="60" width="240" height="30" as="geometry" />
        </mxCell>
        <mxCell id="n5yKzyt80aX8_UwtfpQi-57" value="Drawable" style="swimlane;fontStyle=0;childLayout=stackLayout;horizontal=1;startSize=30;horizontalStack=0;resizeParent=1;resizeParentMax=0;resizeLast=0;collapsible=1;marginBottom=0;whiteSpace=wrap;html=1;" vertex="1" parent="1">
          <mxGeometry x="40" y="-1000" width="200" height="60" as="geometry" />
        </mxCell>
        <mxCell id="n5yKzyt80aX8_UwtfpQi-59" value="draw() public" style="text;strokeColor=none;fillColor=none;align=left;verticalAlign=middle;spacingLeft=4;spacingRight=4;overflow=hidden;points=[[0,0.5],[1,0.5]];portConstraint=eastwest;rotatable=0;whiteSpace=wrap;html=1;" vertex="1" parent="n5yKzyt80aX8_UwtfpQi-57">
          <mxGeometry y="30" width="200" height="30" as="geometry" />
        </mxCell>
        <mxCell id="n5yKzyt80aX8_UwtfpQi-60" value="Interactable" style="swimlane;fontStyle=0;childLayout=stackLayout;horizontal=1;startSize=30;horizontalStack=0;resizeParent=1;resizeParentMax=0;resizeLast=0;collapsible=1;marginBottom=0;whiteSpace=wrap;html=1;" vertex="1" parent="1">
          <mxGeometry x="40" y="-910" width="200" height="90" as="geometry" />
        </mxCell>
        <mxCell id="n5yKzyt80aX8_UwtfpQi-61" value="init(function&amp;lt;void(Event)&amp;gt;) public" style="text;strokeColor=none;fillColor=none;align=left;verticalAlign=middle;spacingLeft=4;spacingRight=4;overflow=hidden;points=[[0,0.5],[1,0.5]];portConstraint=eastwest;rotatable=0;whiteSpace=wrap;html=1;" vertex="1" parent="n5yKzyt80aX8_UwtfpQi-60">
          <mxGeometry y="30" width="200" height="30" as="geometry" />
        </mxCell>
        <mxCell id="n5yKzyt80aX8_UwtfpQi-63" value="activate() private" style="text;strokeColor=none;fillColor=none;align=left;verticalAlign=middle;spacingLeft=4;spacingRight=4;overflow=hidden;points=[[0,0.5],[1,0.5]];portConstraint=eastwest;rotatable=0;whiteSpace=wrap;html=1;" vertex="1" parent="n5yKzyt80aX8_UwtfpQi-60">
          <mxGeometry y="60" width="200" height="30" as="geometry" />
        </mxCell>
        <mxCell id="n5yKzyt80aX8_UwtfpQi-74" style="edgeStyle=orthogonalEdgeStyle;rounded=0;orthogonalLoop=1;jettySize=auto;html=1;exitX=0.5;exitY=1;exitDx=0;exitDy=0;entryX=0.5;entryY=0;entryDx=0;entryDy=0;" edge="1" parent="1" source="n5yKzyt80aX8_UwtfpQi-67" target="n5yKzyt80aX8_UwtfpQi-72">
          <mxGeometry relative="1" as="geometry" />
        </mxCell>
        <mxCell id="n5yKzyt80aX8_UwtfpQi-67" value="Figure" style="rounded=1;whiteSpace=wrap;html=1;strokeColor=default;fillColor=none;fontSize=14;" vertex="1" parent="1">
          <mxGeometry x="360" y="-1115" width="160" height="80" as="geometry" />
        </mxCell>
        <mxCell id="n5yKzyt80aX8_UwtfpQi-68" style="edgeStyle=orthogonalEdgeStyle;rounded=0;orthogonalLoop=1;jettySize=auto;html=1;exitX=1;exitY=0.5;exitDx=0;exitDy=0;entryX=0;entryY=0.5;entryDx=0;entryDy=0;" edge="1" parent="1" source="n5yKzyt80aX8_UwtfpQi-37" target="n5yKzyt80aX8_UwtfpQi-67">
          <mxGeometry relative="1" as="geometry">
            <Array as="points">
              <mxPoint x="320" y="-1195" />
              <mxPoint x="320" y="-1075" />
            </Array>
          </mxGeometry>
        </mxCell>
        <mxCell id="n5yKzyt80aX8_UwtfpQi-69" style="edgeStyle=orthogonalEdgeStyle;rounded=0;orthogonalLoop=1;jettySize=auto;html=1;exitX=1;exitY=0.5;exitDx=0;exitDy=0;entryX=0;entryY=0.5;entryDx=0;entryDy=0;" edge="1" parent="1" source="n5yKzyt80aX8_UwtfpQi-43" target="n5yKzyt80aX8_UwtfpQi-67">
          <mxGeometry relative="1" as="geometry" />
        </mxCell>
        <mxCell id="n5yKzyt80aX8_UwtfpQi-76" style="edgeStyle=orthogonalEdgeStyle;rounded=0;orthogonalLoop=1;jettySize=auto;html=1;exitX=0.5;exitY=1;exitDx=0;exitDy=0;entryX=0.5;entryY=0;entryDx=0;entryDy=0;" edge="1" parent="1" source="n5yKzyt80aX8_UwtfpQi-72" target="n5yKzyt80aX8_UwtfpQi-75">
          <mxGeometry relative="1" as="geometry" />
        </mxCell>
        <mxCell id="n5yKzyt80aX8_UwtfpQi-79" style="edgeStyle=orthogonalEdgeStyle;rounded=0;orthogonalLoop=1;jettySize=auto;html=1;exitX=1;exitY=0.5;exitDx=0;exitDy=0;entryX=0;entryY=0.5;entryDx=0;entryDy=0;dashed=1;" edge="1" parent="1" source="n5yKzyt80aX8_UwtfpQi-72" target="n5yKzyt80aX8_UwtfpQi-78">
          <mxGeometry relative="1" as="geometry" />
        </mxCell>
        <mxCell id="n5yKzyt80aX8_UwtfpQi-72" value="Texture" style="rounded=1;whiteSpace=wrap;html=1;strokeColor=default;fillColor=none;fontSize=14;" vertex="1" parent="1">
          <mxGeometry x="360" y="-930" width="160" height="80" as="geometry" />
        </mxCell>
        <mxCell id="n5yKzyt80aX8_UwtfpQi-73" style="edgeStyle=orthogonalEdgeStyle;rounded=0;orthogonalLoop=1;jettySize=auto;html=1;exitX=1;exitY=0.5;exitDx=0;exitDy=0;entryX=0.5;entryY=0;entryDx=0;entryDy=0;" edge="1" parent="1" source="n5yKzyt80aX8_UwtfpQi-59" target="n5yKzyt80aX8_UwtfpQi-72">
          <mxGeometry relative="1" as="geometry" />
        </mxCell>
        <mxCell id="n5yKzyt80aX8_UwtfpQi-75" value="Widget const&lt;br&gt;Entity non-const" style="rounded=1;whiteSpace=wrap;html=1;strokeColor=default;fillColor=none;fontSize=14;" vertex="1" parent="1">
          <mxGeometry x="360" y="-790" width="160" height="80" as="geometry" />
        </mxCell>
        <mxCell id="n5yKzyt80aX8_UwtfpQi-77" style="edgeStyle=orthogonalEdgeStyle;rounded=0;orthogonalLoop=1;jettySize=auto;html=1;exitX=1;exitY=0.5;exitDx=0;exitDy=0;entryX=0.5;entryY=0;entryDx=0;entryDy=0;" edge="1" parent="1" source="n5yKzyt80aX8_UwtfpQi-63" target="n5yKzyt80aX8_UwtfpQi-75">
          <mxGeometry relative="1" as="geometry" />
        </mxCell>
        <mxCell id="n5yKzyt80aX8_UwtfpQi-78" value="SDL2" style="rounded=1;whiteSpace=wrap;html=1;strokeColor=default;fillColor=none;fontSize=14;" vertex="1" parent="1">
          <mxGeometry x="560" y="-930" width="160" height="80" as="geometry" />
        </mxCell>
      </root>
    </mxGraphModel>
  </diagram>
</mxfile>
